<?xml version="1.0" standalone="no"?>
<!DOCTYPE svg PUBLIC "-//W3C//DTD SVG 20010904//EN"
 "http://www.w3.org/TR/2001/REC-SVG-20010904/DTD/svg10.dtd">
<svg version="1.0" xmlns="http://www.w3.org/2000/svg"
 width="255.000000pt" height="191.000000pt" viewBox="0 0 255.000000 191.000000"
 preserveAspectRatio="xMidYMid meet">
<metadata>
Created by potrace 1.15, written by Peter Selinger 2001-2017
</metadata>
<g transform="translate(0.000000,191.000000) scale(0.100000,-0.100000)"
fill="#000000" stroke="none">
<path d="M1 758 l-1 -758 1275 0 1275 0 0 265 0 264 -122 -80 c-68 -45 -195
-116 -283 -159 -332 -163 -619 -232 -965 -232 -336 0 -458 70 -560 317 -76
185 -112 227 -257 297 -79 38 -111 59 -142 96 -101 117 -169 319 -200 592 -6
52 -13 109 -15 125 -1 17 -4 -311 -5 -727z m389 -253 c56 -29 110 -118 110
-183 0 -30 -31 -95 -62 -129 -35 -37 -107 -66 -154 -60 -23 2 -48 9 -55 15
-77 61 -97 85 -109 127 -31 111 26 207 150 249 21 7 90 -4 120 -19z"/>
</g>
</svg>
